<svg width="51" height="50" viewBox="0 0 51 50" fill="none" xmlns="http://www.w3.org/2000/svg">
<path id="Activity" fill-rule="evenodd" clip-rule="evenodd" d="M38.2827 6.02486C38.2827 2.69994 40.9827 0 44.3076 0C47.6325 0 50.3324 2.69994 50.3324 6.02486C50.3324 9.34978 47.6325 12.0497 44.3076 12.0497C40.9827 12.0497 38.2827 9.34978 38.2827 6.02486ZM28.656 31.899L35.8808 22.5767L35.7808 22.6267C36.1808 22.0767 36.2558 21.3768 35.9808 20.7518C35.7083 20.1268 35.1058 19.7018 34.4583 19.6518C33.7808 19.5768 33.1084 19.8768 32.7059 20.4268L26.6585 28.2516L19.7312 22.8017C19.3062 22.4767 18.8062 22.3492 18.3062 22.4017C17.8087 22.4767 17.3587 22.7492 17.0562 23.1492L9.6589 32.7765L9.50641 33.0015C9.08142 33.799 9.28141 34.8239 10.0314 35.3764C10.3814 35.6014 10.7564 35.7514 11.1814 35.7514C11.7589 35.7764 12.3063 35.4739 12.6563 35.0014L18.9312 26.9241L26.056 32.2765L26.281 32.424C27.081 32.849 28.081 32.6515 28.656 31.899ZM33.9577 4.45096C33.8577 5.07595 33.8077 5.70093 33.8077 6.32592C33.8077 11.9508 38.3576 16.4982 43.9575 16.4982C44.5825 16.4982 45.1824 16.4257 45.8074 16.3257V36.4977C45.8074 44.975 40.8076 49.9999 32.3077 49.9999H13.8357C5.33338 49.9999 0.333496 44.975 0.333496 36.4977V18.0006C0.333496 9.50085 5.33338 4.45096 13.8357 4.45096H33.9577Z" fill="black"/>
</svg>
