<svg width="48" height="48" viewBox="0 0 48 48" fill="none" xmlns="http://www.w3.org/2000/svg">
<g clip-path="url(#clip0_94_216)">
<path d="M9.98012 25.7241C10.3471 28.3694 11.4527 30.8576 13.1699 32.903C14.8871 34.9484 17.1463 36.4681 19.6881 37.2876C22.2299 38.1071 24.9513 38.1932 27.5398 37.536C30.1284 36.8787 32.4791 35.5049 34.3221 33.5721C34.1472 33.168 34.0417 32.7373 34.0101 32.2981L34.0001 32.0001L34.0101 31.7001C34.0698 30.9047 34.366 30.1454 34.8605 29.5196C35.355 28.8938 36.0253 28.4301 36.7853 28.1881C37.5453 27.9461 38.3603 27.9369 39.1256 28.1615C39.8909 28.3862 40.5716 28.8345 41.0802 29.4489C41.5888 30.0633 41.9021 30.8157 41.9798 31.6095C42.0576 32.4033 41.8963 33.2023 41.5166 33.9037C41.1369 34.6051 40.5562 35.177 39.8491 35.5459C39.1419 35.9149 38.3406 36.064 37.5481 35.9741C35.2257 38.5444 32.2178 40.3985 28.878 41.3184C25.5382 42.2383 22.0052 42.1859 18.6942 41.1672C15.3832 40.1485 12.4317 38.2059 10.1866 35.5678C7.94154 32.9296 6.49608 29.7054 6.02012 26.2741C5.96491 25.7575 6.11287 25.2397 6.43269 24.8303C6.75251 24.4209 7.21908 24.152 7.73366 24.0805C8.24823 24.0091 8.77043 24.1406 9.18971 24.4474C9.609 24.7541 9.89247 25.212 9.98012 25.7241Z" fill="#0A0D14"/>
<path d="M24 16C25.5652 16 27.096 16.4592 28.4029 17.3206C29.7097 18.182 30.7352 19.4079 31.3522 20.8464C31.9692 22.2848 32.1507 23.8727 31.8742 25.4133C31.5977 26.9539 30.8753 28.3795 29.7965 29.5136C28.7178 30.6477 27.3301 31.4405 25.8052 31.7937C24.2804 32.1469 22.6854 32.045 21.2179 31.5007C19.7504 30.9563 18.4748 29.9935 17.5491 28.7313C16.6234 27.4692 16.0883 25.9633 16.01 24.4L16 24L16.01 23.6C16.1126 21.5501 16.9992 19.618 18.4864 18.2034C19.9735 16.7889 21.9475 16 24 16Z" fill="#0A0D14"/>
<path d="M26.284 6.17995C30.2428 6.69111 33.9237 8.48955 36.76 11.2983C39.5962 14.1071 41.4303 17.7703 41.98 21.724C42.0367 22.2412 41.8897 22.7601 41.57 23.1706C41.2504 23.5812 40.7834 23.851 40.268 23.9228C39.7527 23.9947 39.2297 23.8629 38.81 23.5554C38.3903 23.2479 38.1069 22.7889 38.02 22.2759C37.591 19.1907 36.1594 16.332 33.9458 14.1405C31.7322 11.9489 28.8594 10.546 25.77 10.148C23.56 9.86025 21.3132 10.0971 19.2118 10.8393C17.1103 11.5814 15.2132 12.8081 13.674 14.42C13.9044 14.9539 14.0155 15.5317 13.9997 16.113C13.984 16.6943 13.8416 17.2652 13.5826 17.7859C13.3237 18.3065 12.9543 18.7645 12.5002 19.1278C12.0461 19.4911 11.5183 19.751 10.9535 19.8895C10.3886 20.0279 9.80044 20.0415 9.22983 19.9294C8.65921 19.8172 8.11991 19.582 7.6495 19.2401C7.1791 18.8982 6.7889 18.4579 6.50609 17.9497C6.22328 17.4416 6.05467 16.8779 6.012 16.298L6 16L6.01 15.7C6.05022 15.164 6.19804 14.6417 6.44462 14.1641C6.6912 13.6866 7.03148 13.2636 7.44516 12.9205C7.85883 12.5774 8.33741 12.3212 8.8523 12.1671C9.3672 12.0131 9.90786 11.9644 10.442 12.024C12.4134 9.84165 14.8846 8.16994 17.6437 7.15211C20.4029 6.13428 23.3677 5.8007 26.284 6.17995Z" fill="#0A0D14"/>
</g>
<defs>
<clipPath id="clip0_94_216">
<rect width="48" height="48" fill="white"/>
</clipPath>
</defs>
</svg>
