<svg width="48" height="48" viewBox="0 0 48 48" fill="none" xmlns="http://www.w3.org/2000/svg">
<g clip-path="url(#clip0_94_192)">
<path d="M34 6.68003C37.0165 8.42174 39.5259 10.9211 41.2796 13.9306C43.0334 16.9402 43.9707 20.3556 43.9989 23.8387C44.027 27.3218 43.1449 30.7519 41.44 33.7894C39.7351 36.8269 37.2665 39.3665 34.2785 41.1567C31.2905 42.9469 27.8867 43.9257 24.4042 43.9962C20.9217 44.0666 17.4811 43.2264 14.4231 41.5585C11.3651 39.8907 8.79574 37.4531 6.96933 34.4871C5.14292 31.521 4.12282 28.1295 4.01 24.648L4 24L4.01 23.352C4.12201 19.898 5.1271 16.532 6.92728 13.582C8.72746 10.6321 11.2613 8.19893 14.2818 6.51979C17.3023 4.84065 20.7063 3.97282 24.162 4.0009C27.6177 4.02899 31.0072 4.95202 34 6.68003ZM24 12C23.5101 12.0001 23.0373 12.1799 22.6713 12.5055C22.3052 12.831 22.0713 13.2795 22.014 13.766L22 14V24L22.018 24.262C22.0636 24.609 22.1995 24.938 22.412 25.216L22.586 25.416L28.586 31.416L28.774 31.58C29.1247 31.8522 29.5561 31.9999 30 31.9999C30.4439 31.9999 30.8753 31.8522 31.226 31.58L31.414 31.414L31.58 31.226C31.8521 30.8753 31.9998 30.444 31.9998 30C31.9998 29.5561 31.8521 29.1248 31.58 28.774L31.414 28.586L26 23.17V14L25.986 13.766C25.9287 13.2795 25.6948 12.831 25.3287 12.5055C24.9627 12.1799 24.4899 12.0001 24 12Z" fill="#0A0D14"/>
</g>
<defs>
<clipPath id="clip0_94_192">
<rect width="48" height="48" fill="white"/>
</clipPath>
</defs>
</svg>
