<svg width="51" height="50" viewBox="0 0 51 50" fill="none" xmlns="http://www.w3.org/2000/svg">
<g id="Wallet">
<path id="Wallet_2" fill-rule="evenodd" clip-rule="evenodd" d="M40.0875 14.9494H50.6649C50.6649 5.51276 45.5762 0 36.9543 0H14.3772C5.75523 0 0.666504 5.51276 0.666504 14.8291V35.1709C0.666504 44.4872 5.75523 50 14.3772 50H36.9543C45.5762 50 50.6649 44.4872 50.6649 35.1709V34.3043H40.0875C35.1785 34.3043 31.1989 29.9931 31.1989 24.675C31.1989 19.3569 35.1785 15.0457 40.0875 15.0457V14.9494ZM40.0862 19.086H48.7971C49.828 19.086 50.6637 19.9914 50.6637 21.1082V28.1376C50.6517 29.2489 49.8229 30.1467 48.7971 30.1597H40.2862C37.801 30.1959 35.6278 28.3526 35.0642 25.7302C34.7819 24.1024 35.1781 22.4226 36.1468 21.1411C37.1154 19.8595 38.5574 19.1073 40.0862 19.086ZM40.4643 26.4748H41.2865C42.3419 26.4748 43.1975 25.5479 43.1975 24.4045C43.1975 23.2611 42.3419 22.3342 41.2865 22.3342H40.4643C39.9595 22.3278 39.4733 22.5405 39.1143 22.925C38.7552 23.3094 38.5532 23.8336 38.5532 24.3805C38.5532 25.5278 39.4052 26.4616 40.4643 26.4748ZM12.5072 14.9492H26.6179C27.6734 14.9492 28.529 14.0223 28.529 12.8789C28.529 11.7355 27.6734 10.8086 26.6179 10.8086H12.5072C11.4604 10.8085 10.6084 11.7208 10.5962 12.8548C10.5961 14.0022 11.4482 14.936 12.5072 14.9492Z" fill="black"/>
</g>
</svg>
